# xmcd CD database file
#
# Track frame offsets:
#	150
#	33128
#	53738
#	78648
#	106895
#	151375
#	186040
#	205963
#
# Disc length: 3123 seconds
#
# Revision: 0
# Processed by: cddbd v1.5PL3 Copyright (c) Steve Scherf et al.
# Submitted via: CDex 1.50
#
DISCID=5e0c3108
DTITLE=Douglas Sides - Sumbio
DYEAR=1997
DGENRE=Jazz
TTITLE0=Sumbio
TTITLE1=Mar
TTITLE2=Pensive
TTITLE3=Dialogue No. 1
TTITLE4=Story of E.
TTITLE5=Samba d'Esprit
TTITLE6=Zenith
TTITLE7=Balancing Act
EXTD=YEAR: 1997
EXTT0=
EXTT1=
EXTT2=
EXTT3=
EXTT4=
EXTT5=
EXTT6=
EXTT7=
PLAYORDER=
